<svg width="20" height="19" viewBox="0 0 20 19" fill="none" xmlns="http://www.w3.org/2000/svg">
<path d="M9.28263 1.45332C9.51312 0.986377 9.62836 0.752908 9.78481 0.678314C9.92093 0.613414 10.0791 0.613414 10.2152 0.678314C10.3716 0.752908 10.4869 0.986377 10.7174 1.45332L12.904 5.88328C12.9721 6.02113 13.0061 6.09006 13.0558 6.14358C13.0999 6.19096 13.1527 6.22935 13.2113 6.25662C13.2775 6.28742 13.3536 6.29854 13.5057 6.32077L18.397 7.03571C18.912 7.11099 19.1696 7.14863 19.2888 7.27444C19.3925 7.38389 19.4412 7.5343 19.4215 7.68377C19.3988 7.85558 19.2124 8.03718 18.8395 8.40038L15.3014 11.8464C15.1911 11.9538 15.136 12.0076 15.1004 12.0715C15.0689 12.128 15.0487 12.1902 15.0409 12.2545C15.0321 12.3271 15.0451 12.403 15.0711 12.5547L15.9059 17.4221C15.994 17.9355 16.038 18.1922 15.9553 18.3445C15.8833 18.477 15.7553 18.57 15.607 18.5975C15.4366 18.6291 15.2061 18.5078 14.7451 18.2654L10.3724 15.9658C10.2361 15.8942 10.168 15.8584 10.0962 15.8443C10.0327 15.8318 9.96732 15.8318 9.90378 15.8443C9.83201 15.8584 9.76388 15.8942 9.62764 15.9658L5.25491 18.2654C4.7939 18.5078 4.56339 18.6291 4.39295 18.5975C4.24466 18.57 4.11671 18.477 4.04472 18.3445C3.96198 18.1922 4.00601 17.9355 4.09406 17.4221L4.92887 12.5547C4.9549 12.403 4.96791 12.3271 4.9591 12.2545C4.95131 12.1902 4.93109 12.128 4.89959 12.0715C4.86401 12.0076 4.80886 11.9538 4.69857 11.8464L1.16054 8.40038C0.787646 8.03718 0.601198 7.85558 0.578509 7.68377C0.558769 7.5343 0.607536 7.38389 0.711233 7.27444C0.830418 7.14863 1.08795 7.11099 1.60303 7.03571L6.49429 6.32077C6.64641 6.29854 6.72246 6.28742 6.7887 6.25662C6.84735 6.22935 6.90014 6.19096 6.94417 6.14358C6.99389 6.09006 7.02791 6.02113 7.09596 5.88328L9.28263 1.45332Z" fill="#FFD130"/>
</svg>
