<svg width="508" height="317" viewBox="0 0 508 317" fill="none" xmlns="http://www.w3.org/2000/svg">
<path d="M0 317V0H23C23 0 17.5 25.5 36.5 22C55.5 18.5 44 53.5 61 60.5C78 67.5 63 31.5 83 22C103 12.5 119 0 119 0H143H191.5C191.5 0 195 17 218.5 17C242 17 241 71.5 256.5 71.5C272 71.5 255 40 270.5 35C286 30 295.5 0 295.5 0H377.5C377.5 0 380.5 22 404 22C427.5 22 441 71.5 456.5 71.5C472 71.5 450.5 33.5 466 28.5C481.5 23.5 481.5 0 481.5 0H508V317H0Z" fill="#22C55E"/>
<ellipse cx="78.5" cy="67.5" rx="4.5" ry="5.5" fill="#FAF5EF"/>
<circle cx="67.5" cy="81.5" r="2.5" fill="#FAF5EF"/>
<ellipse cx="414.5" cy="37.5" rx="4.5" ry="5.5" fill="#FAF5EF"/>
<circle cx="470.5" cy="72.5" r="2.5" fill="#FAF5EF"/>
<ellipse cx="279.5" cy="45.5" rx="4.5" ry="5.5" fill="#FAF5EF"/>
<circle cx="268.5" cy="59.5" r="2.5" fill="#FAF5EF"/>
</svg>
